<?xml version="1.0" encoding="iso-8859-1"?>
<!-- Generator: Adobe Illustrator 19.0.0, SVG Export Plug-In . SVG Version: 6.00 Build 0)  -->
<svg version="1.1" id="Capa_1" xmlns="http://www.w3.org/2000/svg" xmlns:xlink="http://www.w3.org/1999/xlink" x="0px" y="0px"
	 viewBox="0 0 480 480" style="enable-background:new 0 0 480 480;" xml:space="preserve">
<g>
	<g>
		<path d="M464,432h-16V32c0-8.832-7.168-16-16-16h-64c-8.832,0-16,7.168-16,16v400h-64V256c0-8.832-7.168-16-16-16h-64
			c-8.832,0-16,7.168-16,16v176h-64V160c0-8.832-7.168-16-16-16H48c-8.832,0-16,7.168-16,16v272H16c-8.832,0-16,7.168-16,16
			c0,8.832,7.168,16,16,16h448c8.832,0,16-7.168,16-16C480,439.168,472.832,432,464,432z"/>
	</g>
</g>
<g>
</g>
<g>
</g>
<g>
</g>
<g>
</g>
<g>
</g>
<g>
</g>
<g>
</g>
<g>
</g>
<g>
</g>
<g>
</g>
<g>
</g>
<g>
</g>
<g>
</g>
<g>
</g>
<g>
</g>
</svg>
