<svg xmlns="http://www.w3.org/2000/svg" xmlns:xlink="http://www.w3.org/1999/xlink" version="1.1" style="enable-background:new 0 0 490.3 490.3;" xml:space="preserve" width="490.3" height="490.3"><rect id="backgroundrect" width="100%" height="100%" x="0" y="0" fill="none" stroke="none"/>
















<g class="currentLayer" style=""><title>Layer 1</title><g id="svg_1" class="selected" fill="#dadada" fill-opacity="1">
	<g id="svg_2" fill="#dadada" fill-opacity="1">
		<path d="M0,121.05v248.2c0,34.2,27.9,62.1,62.1,62.1h200.6c34.2,0,62.1-27.9,62.1-62.1v-40.2c0-6.8-5.5-12.3-12.3-12.3    s-12.3,5.5-12.3,12.3v40.2c0,20.7-16.9,37.6-37.6,37.6H62.1c-20.7,0-37.6-16.9-37.6-37.6v-248.2c0-20.7,16.9-37.6,37.6-37.6h200.6    c20.7,0,37.6,16.9,37.6,37.6v40.2c0,6.8,5.5,12.3,12.3,12.3s12.3-5.5,12.3-12.3v-40.2c0-34.2-27.9-62.1-62.1-62.1H62.1    C27.9,58.95,0,86.75,0,121.05z" id="svg_3" fill="#dadada" fill-opacity="1"/>
		<path d="M385.4,337.65c2.4,2.4,5.5,3.6,8.7,3.6s6.3-1.2,8.7-3.6l83.9-83.9c4.8-4.8,4.8-12.5,0-17.3l-83.9-83.9    c-4.8-4.8-12.5-4.8-17.3,0s-4.8,12.5,0,17.3l63,63H218.6c-6.8,0-12.3,5.5-12.3,12.3c0,6.8,5.5,12.3,12.3,12.3h229.8l-63,63    C380.6,325.15,380.6,332.95,385.4,337.65z" id="svg_4" fill="#dadada" fill-opacity="1"/>
	</g>
</g><g id="svg_5">
</g><g id="svg_6">
</g><g id="svg_7">
</g><g id="svg_8">
</g><g id="svg_9">
</g><g id="svg_10">
</g><g id="svg_11">
</g><g id="svg_12">
</g><g id="svg_13">
</g><g id="svg_14">
</g><g id="svg_15">
</g><g id="svg_16">
</g><g id="svg_17">
</g><g id="svg_18">
</g><g id="svg_19">
</g></g></svg>