<?xml version="1.0" encoding="utf-8"?>
<!-- Generator: Adobe Illustrator 16.0.4, SVG Export Plug-In . SVG Version: 6.00 Build 0)  -->
<!DOCTYPE svg PUBLIC "-//W3C//DTD SVG 1.1//EN" "http://www.w3.org/Graphics/SVG/1.1/DTD/svg11.dtd">
<svg version="1.1" id="Layer_1" xmlns="http://www.w3.org/2000/svg" xmlns:xlink="http://www.w3.org/1999/xlink" x="0px" y="0px"
	 width="280px" height="300px" viewBox="0 0 280 300" enable-background="new 0 0 280 300" xml:space="preserve">
<g>
	<g>
		<g>
			<path fill="#FFFFFF" d="M126.308,100.822c-6.342,0-11.501-5.159-11.501-11.5V18.086c0-6.341,5.159-11.5,11.501-11.5
				c6.341,0,11.499,5.159,11.499,11.5v71.236C137.807,95.664,132.648,100.822,126.308,100.822z"/>
			<path fill="#959595" d="M126.308,12.586c3.032,0,5.499,2.467,5.499,5.5v71.236c0,3.033-2.467,5.5-5.499,5.5
				c-3.033,0-5.501-2.467-5.501-5.5V18.086C120.807,15.053,123.274,12.586,126.308,12.586 M126.308,0.586
				c-9.665,0-17.501,7.836-17.501,17.5v71.236c0,9.665,7.836,17.5,17.501,17.5s17.499-7.835,17.499-17.5V18.086
				C143.807,8.422,135.973,0.586,126.308,0.586L126.308,0.586z"/>
		</g>
		<g>
			<path fill="#FFFFFF" d="M127,294c-12.39,0-22.47-10.08-22.47-22.471c0-12.39,10.08-22.469,22.47-22.469
				c12.391,0,22.471,10.079,22.471,22.469C149.471,283.92,139.391,294,127,294z"/>
			<path fill="#959595" d="M127,255.061c9.082,0,16.471,7.388,16.471,16.469c0,9.082-7.389,16.471-16.471,16.471
				c-9.082,0-16.47-7.389-16.47-16.471C110.53,262.448,117.918,255.061,127,255.061 M127,243.061
				c-15.724,0-28.47,12.746-28.47,28.469C98.53,287.254,111.276,300,127,300s28.471-12.746,28.471-28.471
				C155.471,255.807,142.724,243.061,127,243.061L127,243.061z"/>
		</g>
		<g>
			<path fill="#FFFFFF" d="M126.632,272.254c-11.631,0-41.218-1.007-69.942-4.818c-45.815-6.079-50.276-14.22-50.634-15.128
				c-0.272-0.691,0.835-2.385,2.693-4.118c22.28-20.785,33.576-67.303,33.576-138.261c0-32.28,29.987-78.971,84.209-79.028
				l0.836,0.024c54.286,0,84.31,46.739,84.31,79.046c0,70.935,11.295,117.439,33.571,138.219c1.858,1.733,2.966,3.427,2.693,4.118
				c-0.358,0.908-4.819,9.049-50.634,15.128c-28.725,3.812-58.31,4.818-69.94,4.818H126.632z"/>
			<path fill="#959595" d="M126.439,36.9l0.534,0.018l0.199,0.006h0.198c29.058,0,47.671,13.835,58.17,25.441
				c12.423,13.733,20.14,31.975,20.14,47.604c0,71.247,11.477,118.764,34.113,141.292c-4.951,2.55-17.384,7.046-47.135,10.721
				c-27.359,3.379-54.67,4.271-65.288,4.271h-0.738c-10.619,0-37.93-0.893-65.29-4.271c-29.752-3.675-42.185-8.171-47.136-10.721
				c22.64-22.532,34.119-70.063,34.119-141.333c0-15.628,7.716-33.866,20.138-47.595C78.938,50.756,97.49,36.961,126.439,36.9
				 M126.633,24.9c-58.438,0-90.308,50.01-90.308,85.028c0,32.281-2.173,106.357-31.669,133.874
				c-29.494,27.515,89.507,34.452,121.976,34.452c0.182,0,0.553,0,0.738,0c32.466,0,151.468-6.938,121.974-34.452
				c-29.498-27.517-31.664-101.55-31.664-133.832c0-35.018-31.872-85.046-90.31-85.046L126.633,24.9L126.633,24.9z"/>
		</g>
	</g>
</g>
<g>
	<circle fill="#959595" cx="227.688" cy="52.312" r="52.312"/>
	<g>
		<path fill="#FFFFFF" stroke="#FFFFFF" stroke-width="2" stroke-miterlimit="10" d="M229.023,30.09l-8.076,2.638
			c-0.495,0.166-0.99,0.249-1.402,0.249c-1.484,0-2.804-1.236-2.804-2.804c0-1.402,0.907-2.309,2.309-2.802l9.481-3.298
			c1.318-0.412,2.472-0.741,3.542-0.741h0.166c1.896,0,3.215,1.482,3.215,3.213V78.81c0,1.812-1.401,3.296-3.215,3.296
			c-1.731,0-3.216-1.484-3.216-3.296V30.09L229.023,30.09z"/>
	</g>
</g>
</svg>
