<svg xmlns="http://www.w3.org/2000/svg" xmlns:xlink="http://www.w3.org/1999/xlink" version="1.1" style="" xml:space="preserve" width="480" height="480"><rect id="backgroundrect" width="100%" height="100%" x="0" y="0" fill="none" stroke="none"/>
















<g class="currentLayer" style=""><title>Layer 1</title><g id="svg_1" class="selected" fill="#484848" fill-opacity="1">
	<g id="svg_2" fill="#484848" fill-opacity="1">
		<path d="M464.7575756907463,432 h-16 V32 c0,-8.832 -7.168,-16 -16,-16 h-64 c-8.832,0 -16,7.168 -16,16 v400 h-64 V256 c0,-8.832 -7.168,-16 -16,-16 h-64 c-8.832,0 -16,7.168 -16,16 v176 h-64 V160 c0,-8.832 -7.168,-16 -16,-16 H48.75757569074631 c-8.832,0 -16,7.168 -16,16 v272 H16.757575690746307 c-8.832,0 -16,7.168 -16,16 c0,8.832 7.168,16 16,16 h448 c8.832,0 16,-7.168 16,-16 C480.7575756907463,439.168 473.5895756907463,432 464.7575756907463,432 z" id="svg_3" fill="#484848" fill-opacity="1"/>
	</g>
</g><g id="svg_4">
</g><g id="svg_5">
</g><g id="svg_6">
</g><g id="svg_7">
</g><g id="svg_8">
</g><g id="svg_9">
</g><g id="svg_10">
</g><g id="svg_11">
</g><g id="svg_12">
</g><g id="svg_13">
</g><g id="svg_14">
</g><g id="svg_15">
</g><g id="svg_16">
</g><g id="svg_17">
</g><g id="svg_18">
</g></g></svg>