<svg xmlns="http://www.w3.org/2000/svg" xmlns:xlink="http://www.w3.org/1999/xlink" version="1.1" style="enable-background:new 0 0 350 350;" xml:space="preserve" width="350" height="350"><rect id="backgroundrect" width="100%" height="100%" x="0" y="0" fill="none" stroke="none"/>
















<g class="currentLayer" style=""><title>Layer 1</title><g id="svg_1" class="selected" fill="#ffffff" fill-opacity="1">
	<path d="M175,171.9305756907463 c38.914,0 70.463,-38.318 70.463,-85.586 C245.463,39.075575690746305 235.105,0.7575756907463074 175,0.7575756907463074 s-70.465,38.318 -70.465,85.587 C104.535,133.6125756907463 136.084,171.9305756907463 175,171.9305756907463 z" id="svg_2" fill="#ffffff" fill-opacity="1"/>
	<path d="M41.909,302.6105756907463 C41.897,299.7285756907463 41.885,301.7985756907463 41.909,302.6105756907463 L41.909,302.6105756907463 z" id="svg_3" fill="#ffffff" fill-opacity="1"/>
	<path d="M308.085,304.8615756907463 C308.123,304.0725756907463 308.098,299.3875756907463 308.085,304.8615756907463 L308.085,304.8615756907463 z" id="svg_4" fill="#ffffff" fill-opacity="1"/>
	<path d="M307.935,299.1545756907463 c-1.3050000000000002,-82.342 -12.059,-105.805 -94.352,-120.657 c0,0 -11.584,14.761 -38.584,14.761 s-38.586,-14.761 -38.586,-14.761 c-81.395,14.69 -92.803,37.805 -94.303,117.982 c-0.12300000000000001,6.547 -0.18000000000000002,6.891 -0.202,6.131 c0.005000000000000001,1.424 0.011000000000000003,4.058 0.011000000000000003,8.651 c0,0 19.592,39.496 133.08,39.496 c113.486,0 133.08,-39.496 133.08,-39.496 c0,-2.951 0.0020000000000000005,-5.003 0.005000000000000001,-6.399 C308.062,305.3325756907463 308.018,304.4215756907463 307.935,299.1545756907463 z" id="svg_5" fill="#ffffff" fill-opacity="1"/>
</g><g id="svg_6">
</g><g id="svg_7">
</g><g id="svg_8">
</g><g id="svg_9">
</g><g id="svg_10">
</g><g id="svg_11">
</g><g id="svg_12">
</g><g id="svg_13">
</g><g id="svg_14">
</g><g id="svg_15">
</g><g id="svg_16">
</g><g id="svg_17">
</g><g id="svg_18">
</g><g id="svg_19">
</g><g id="svg_20">
</g></g></svg>