<svg xmlns="http://www.w3.org/2000/svg" xmlns:xlink="http://www.w3.org/1999/xlink" version="1.1" width="45.672000885009766" height="45.67300033569336" style="" xml:space="preserve"><rect id="backgroundrect" width="100%" height="100%" x="0" y="0" fill="none" stroke="none"/>
















<g class="currentLayer" style=""><title>Layer 1</title><g id="svg_1" class="" fill="#009900" fill-opacity="1">
	<g id="svg_2" fill="#009900" fill-opacity="1">
		<path d="M43.026,30.782575690746306 c-1.122,0 -2.031,2.91 -2.031,4.031 c0,1.122 0.909,2.031 2.031,2.031 s2.031,-0.909 2.031,-2.031 C45.057,33.69357569074631 44.148,30.782575690746306 43.026,30.782575690746306 z" id="svg_3" fill="#009900" fill-opacity="1"/>
		<path d="M39.44,40.368575690746304 c-1.122,0 -2.031,2.908 -2.031,4.03 s0.909,2.031 2.031,2.031 s2.031,-0.909 2.031,-2.031 S40.562,40.368575690746304 39.44,40.368575690746304 z" id="svg_4" fill="#009900" fill-opacity="1"/>
		<path d="M36.638,24.900575690746308 c0.97,1.908 2.862,3.215 5.019,3.407 c0.35600000000000004,0.03200000000000001 0.7080000000000001,-0.10300000000000001 0.9540000000000001,-0.36000000000000004 c0.24600000000000002,-0.261 0.35800000000000004,-0.6190000000000001 0.30700000000000005,-0.974 l-1.436,-9.814 c-0.05200000000000001,-0.35400000000000004 -0.263,-0.6650000000000001 -0.5730000000000001,-0.8440000000000001 c-0.31000000000000005,-0.17900000000000002 -0.6850000000000002,-0.20600000000000002 -1.017,-0.07400000000000001 c-2.011,0.801 -3.45,2.596 -3.833,4.702 L24.894,22.577575690746308 l5.505,-6.979 c0.801,-1.015 0.6810000000000002,-2.476 -0.274,-3.347 l-9.291,-8.47 c-0.9550000000000001,-0.8700000000000001 -2.4210000000000003,-0.8540000000000001 -3.357,0.036000000000000004 l-0.20400000000000001,0.19300000000000003 c-0.234,-0.268 -0.48100000000000004,-0.526 -0.7500000000000001,-0.771 C14.767,1.6385756907463076 12.492,0.7575756907463074 10.118,0.7575756907463074 C7.449,0.7575756907463074 4.8870000000000005,1.8885756907463074 3.089,3.8595756907463072 c-3.472,3.81 -3.255,9.69 0.43300000000000005,13.246 c-0.44000000000000006,0.463 -0.6920000000000002,1.074 -0.6860000000000002,1.717 c0.007000000000000002,0.6840000000000002 0.29800000000000004,1.334 0.804,1.794 l11.307,10.309 c0.505,0.461 1.18,0.6910000000000002 1.8610000000000002,0.6360000000000001 c0.6820000000000002,-0.05700000000000001 1.31,-0.3940000000000001 1.733,-0.93 l2.749,-3.484 L36.638,24.900575690746308 zM5.307,5.880575690746308 C6.537,4.530575690746307 8.291,3.7575756907463074 10.119,3.7575756907463074 c1.625,0 3.181,0.6040000000000001 4.383,1.6990000000000003 c0.21600000000000003,0.19700000000000004 0.41000000000000003,0.40900000000000003 0.5930000000000001,0.6270000000000001 l-9.409,8.947 C3.08,12.606575690746308 2.903,8.517575690746307 5.307,5.880575690746308 z" id="svg_5" fill="#009900" fill-opacity="1"/>
	</g>
</g><g id="svg_6">
</g><g id="svg_7">
</g><g id="svg_8">
</g><g id="svg_9">
</g><g id="svg_10">
</g><g id="svg_11">
</g><g id="svg_12">
</g><g id="svg_13">
</g><g id="svg_14">
</g><g id="svg_15">
</g><g id="svg_16">
</g><g id="svg_17">
</g><g id="svg_18">
</g><g id="svg_19">
</g><g id="svg_20">
</g></g></svg>